#N canvas 110 138 339 341 10;
#X obj 194 15 bng 30 250 50 0 load-pl-r empty load_playlist 32 7 1
10 -262130 -1 -1;
#X obj 167 233 hsl 128 30 0.1 100 1 1 brightness-r empty brightness
0 -9 1 10 -258699 -1 -1 9000 1;
#X obj 196 110 bng 30 250 50 0 stop-mov-r empty stop_movie 32 7 1 10
-262130 -1 -1;
#X obj 196 62 bng 30 250 50 0 next-mov-r empty next_movie 32 7 1 10
-262130 -1 -1;
#X obj 19 112 hsl 128 30 0.1 50 1 1 circle-jitter-r empty jitter 0
-9 1 10 -204800 -1 -1 1500 1;
#X obj 17 61 hsl 128 30 0.1 50 1 1 circle-size-r empty circle_size
0 -9 1 10 -204800 -1 -1 8500 1;
#X obj 17 10 tgl 30 1 toggle-circle-r empty toggle_circle 32 7 1 10
-204800 -1 -1 1 1;
#X obj 16 284 hsl 128 30 0.1 50 1 1 cube-jitter-r empty jitter 0 -9
1 10 -261234 -1 -1 1400 1;
#X obj 17 231 hsl 128 30 0.1 50 1 1 cube-size-r empty cube_size 0 -9
1 10 -261234 -1 -1 9700 1;
#X obj 14 184 tgl 30 1 toggle-cube-r empty toggle_cube 32 7 1 10 -261234
-1 -1 1 1;
#X obj 167 181 tgl 30 1 toggle-window-r empty toggle_window 32 7 0
10 -258113 -1 -1 1 1;
#N canvas 306 13 826 666 inner_workings 0;
#X obj 256 265 adc~ 1 2;
#X msg 188 685 0 \, destroy;
#N canvas 0 0 331 253 light 0;
#X obj 33 19 inlet;
#X obj 83 88 *~ 1;
#N canvas 439 84 334 281 audiotocolorfilter 0;
#X obj 210 120 envrms~ 512;
#X obj 29 120 envrms~ 512;
#X obj 90 154 pack 0 0 0;
#X obj 122 120 envrms~ 512;
#X obj 29 98 lop~ 100;
#X obj 210 98 hip~ 500;
#X obj 123 98 bp~ 300 5;
#X obj 90 185 outlet;
#X obj 124 40 inlet~;
#X connect 0 0 2 2;
#X connect 1 0 2 0;
#X connect 2 0 7 0;
#X connect 3 0 2 1;
#X connect 4 0 1 0;
#X connect 5 0 0 0;
#X connect 6 0 3 0;
#X connect 8 0 4 0;
#X connect 8 0 6 0;
#X connect 8 0 5 0;
#X restore 83 132 pd audiotocolorfilter;
#X obj 11 195 world_light;
#X obj 6 141 gemhead;
#X obj 98 12 inlet~;
#X obj 228 18 inlet~;
#X obj 159 62 +~;
#X connect 0 0 1 1;
#X connect 1 0 2 0;
#X connect 2 0 3 1;
#X connect 4 0 3 0;
#X connect 5 0 7 0;
#X connect 6 0 7 1;
#X connect 7 0 1 0;
#X restore 455 466 pd light;
#N canvas 479 0 385 178 pic 0;
#X obj 9 19 gemhead;
#X obj 12 148 outlet;
#X obj 9 102 pix_texture;
#X obj 9 52 pix_image vj_background.tif;
#X connect 0 0 3 0;
#X connect 2 0 1 0;
#X connect 3 0 2 0;
#X restore 285 485 pd pic;
#N canvas 35 193 393 326 movie 0;
#X obj 40 232 outlet;
#X obj 150 13 inlet;
#X obj 198 11 inlet;
#X obj 247 11 inlet;
#X obj 150 64 openpanel;
#N canvas 464 141 370 592 playlist 0;
#X obj 108 35 inlet;
#X obj 108 420 outlet;
#X obj 108 67 route bang;
#X obj 108 243 l2s;
#X msg 276 150 read \$1;
#X msg 195 146 rewind;
#X obj 173 104 t b b a;
#X obj 108 215 textfile;
#X obj 53 106 t b b;
#X msg 108 104 bang;
#X obj 108 295 t a a;
#X msg 108 270 symbol \$1;
#X text 81 11 playlist or bang;
#X text 156 420 next movie;
#X connect 0 0 2 0;
#X connect 2 0 9 0;
#X connect 2 1 6 0;
#X connect 3 0 11 0;
#X connect 4 0 7 0;
#X connect 5 0 7 0;
#X connect 6 0 7 0;
#X connect 6 1 5 0;
#X connect 6 2 4 0;
#X connect 7 0 3 0;
#X connect 7 1 8 0;
#X connect 8 0 7 0;
#X connect 8 1 5 0;
#X connect 9 0 7 0;
#X connect 10 0 1 0;
#X connect 11 0 10 0;
#X coords 0 0 1 1 85 60 0;
#X restore 150 95 pd playlist;
#N canvas 498 65 563 668 play_film 0;
#X obj 0 -47 inlet;
#X obj 80 467 outlet;
#X obj 205 470 outlet;
#X obj 176 -49 inlet;
#X msg 219 14 open \$1;
#X msg 150 24 auto 1;
#X msg 389 135 0;
#X obj 369 476 outlet;
#X obj 0 79 spigot;
#X obj 86 -44 inlet;
#X msg 33 55 1;
#X obj 320 -50 inlet;
#X obj 304 -7 t b b;
#X msg 304 19 0;
#X msg 339 20 auto 0;
#X msg 363 203 0;
#X obj 324 177 t b b b;
#X obj 176 -25 t b b b b a;
#X obj 147 130 pix_movie;
#X text 4 -64 gemhead;
#X text 51 -64 directly to pix_film;
#X text 172 -67 from playlist;
#X text 316 -67 turn off;
#X connect 0 0 8 0;
#X connect 3 0 17 0;
#X connect 4 0 18 0;
#X connect 5 0 18 0;
#X connect 6 0 18 1;
#X connect 8 0 18 0;
#X connect 9 0 18 0;
#X connect 10 0 8 1;
#X connect 11 0 12 0;
#X connect 12 0 13 0;
#X connect 12 1 14 0;
#X connect 13 0 8 1;
#X connect 14 0 18 0;
#X connect 16 0 6 0;
#X connect 16 1 7 0;
#X connect 16 2 15 0;
#X connect 17 1 10 0;
#X connect 17 3 5 0;
#X connect 17 4 4 0;
#X connect 18 0 1 0;
#X connect 18 1 2 0;
#X connect 18 2 16 0;
#X restore 40 165 pd play_film;
#X obj 43 63 gemhead 55;
#X connect 1 0 4 0;
#X connect 2 0 5 0;
#X connect 3 0 6 3;
#X connect 4 0 5 0;
#X connect 5 0 6 2;
#X connect 6 0 0 0;
#X connect 6 2 5 0;
#X connect 7 0 6 0;
#X coords 0 0 1 1 330 40 0;
#X restore 46 259 pd movie;
#N canvas 665 61 405 429 cube------ 0;
#X obj 90 18 inlet;
#X obj 47 16 inlet;
#X obj 146 16 inlet;
#X obj 236 19 inlet~;
#X obj 293 21 inlet~;
#X obj 264 81 +~;
#N canvas 0 0 312 282 jittering 0;
#X obj 47 44 inlet~;
#X obj 122 42 inlet~;
#X obj 72 200 outlet;
#X obj 46 105 envrms~ 512;
#X obj 144 104 envrms~ 512;
#X obj 72 160 -;
#X connect 0 0 3 0;
#X connect 1 0 4 0;
#X connect 3 0 5 0;
#X connect 4 0 5 1;
#X connect 5 0 2 0;
#X restore 236 120 pd jittering;
#X obj 12 251 scale;
#X obj 68 160 envrms~ 512;
#X obj 69 131 *~ 1;
#X obj 12 80 spigot;
#X obj 167 215 loadbang;
#X obj 12 345 rotateXYZ 0 0 0;
#X obj 109 278 int;
#X obj 151 281 + 1;
#X obj 114 318 / 2;
#X msg 241 315 0;
#X obj 12 371 cube 2;
#X obj 12 213 translateXYZ 0 0 -10;
#X obj 88 320 / 3;
#X obj 161 315 moses 2159;
#X obj 12 18 inlet;
#X obj 109 254 metro 51;
#X obj 12 50 separator;
#X obj 126 181 * 60;
#X connect 0 0 9 1;
#X connect 1 0 10 1;
#X connect 2 0 24 1;
#X connect 3 0 6 0;
#X connect 3 0 5 0;
#X connect 4 0 6 1;
#X connect 4 0 5 1;
#X connect 5 0 9 0;
#X connect 6 0 24 0;
#X connect 7 0 12 0;
#X connect 8 0 7 1;
#X connect 9 0 8 0;
#X connect 10 0 18 0;
#X connect 11 0 22 0;
#X connect 12 0 17 0;
#X connect 13 0 14 0;
#X connect 13 0 12 1;
#X connect 13 0 15 0;
#X connect 13 0 19 0;
#X connect 13 0 20 0;
#X connect 14 0 13 1;
#X connect 15 0 12 3;
#X connect 16 0 13 1;
#X connect 18 0 7 0;
#X connect 19 0 12 2;
#X connect 20 1 16 0;
#X connect 21 0 23 0;
#X connect 22 0 13 0;
#X connect 23 0 10 0;
#X connect 24 0 18 2;
#X restore 330 527 pd cube------;
#N canvas 32 0 425 331 circle----- 0;
#X obj 124 16 inlet;
#X obj 73 18 inlet;
#X obj 176 16 inlet;
#X obj 225 16 inlet~;
#X obj 282 18 inlet~;
#X obj 257 89 +~;
#X obj 20 217 translateXYZ 0 0 0;
#X obj 20 286 circle 1;
#X obj 20 253 scale;
#X obj 76 162 envrms~ 512;
#X obj 77 133 *~ 1;
#X obj 22 93 spigot;
#N canvas 0 0 312 282 jittering 0;
#X obj 47 44 inlet~;
#X obj 122 42 inlet~;
#X obj 72 200 outlet;
#X obj 72 160 -;
#X obj 144 104 envrms~ 512;
#X obj 46 105 envrms~ 512;
#X connect 0 0 5 0;
#X connect 1 0 4 0;
#X connect 3 0 2 0;
#X connect 4 0 3 1;
#X connect 5 0 3 0;
#X restore 207 138 pd jittering;
#X obj 20 14 inlet;
#X obj 20 49 separator;
#X obj 157 184 * 60;
#X connect 0 0 10 1;
#X connect 1 0 11 1;
#X connect 2 0 15 1;
#X connect 3 0 5 0;
#X connect 3 0 12 0;
#X connect 4 0 5 1;
#X connect 4 0 12 1;
#X connect 5 0 10 0;
#X connect 6 0 8 0;
#X connect 8 0 7 0;
#X connect 9 0 8 1;
#X connect 10 0 9 0;
#X connect 11 0 6 0;
#X connect 12 0 15 0;
#X connect 13 0 14 0;
#X connect 14 0 11 0;
#X connect 15 0 6 1;
#X restore 144 341 pd circle-----;
#X msg 125 644 \; pd dsp 0;
#X msg 62 644 \; pd dsp 1;
#X obj 37 617 t b b;
#X obj 131 603 t b b;
#N canvas 20 121 547 468 control-gem-window 0;
#X obj 78 340 gemwin;
#X obj 24 18 loadbang;
#X obj 106 21 inlet;
#X obj 24 41 t b b b b;
#X msg 20 290 lighting 1;
#X obj 75 108 list2symbol;
#X msg 75 78 Denno Senshi Porygon 0.9.1;
#X msg 74 145 dimen 800 640 \, title \$1;
#X connect 1 0 3 0;
#X connect 2 0 0 0;
#X connect 3 0 4 0;
#X connect 3 3 6 0;
#X connect 4 0 0 0;
#X connect 5 0 7 0;
#X connect 6 0 5 0;
#X connect 7 0 0 0;
#X restore 60 737 pd control-gem-window;
#X obj 83 537 sel 1 0;
#X obj 82 501 r toggle-window-r;
#X obj 447 362 r brightness-r;
#X obj 343 204 r toggle-cube-r;
#X obj 365 238 r cube-size-r;
#X obj 378 265 r cube-jitter-r;
#X obj 158 159 r toggle-circle-r;
#X obj 197 210 r circle-jitter-r;
#X obj 175 184 r circle-size-r;
#X obj 47 174 r load-pl-r;
#X obj 57 204 r next-mov-r;
#X obj 81 226 r stop-mov-r;
#X msg 43 683 create \, 1 \, frame 25;
#X connect 0 0 6 4;
#X connect 0 0 5 4;
#X connect 0 0 2 1;
#X connect 0 1 6 5;
#X connect 0 1 5 5;
#X connect 0 1 2 2;
#X connect 1 0 11 0;
#X connect 3 0 5 0;
#X connect 4 0 6 0;
#X connect 9 0 24 0;
#X connect 9 1 8 0;
#X connect 10 0 7 0;
#X connect 10 1 1 0;
#X connect 12 0 9 0;
#X connect 12 1 10 0;
#X connect 13 0 12 0;
#X connect 14 0 2 0;
#X connect 15 0 5 1;
#X connect 16 0 5 2;
#X connect 17 0 5 3;
#X connect 18 0 6 1;
#X connect 19 0 6 3;
#X connect 20 0 6 2;
#X connect 21 0 4 0;
#X connect 22 0 4 1;
#X connect 23 0 4 2;
#X connect 24 0 11 0;
#X restore 167 282 pd inner_workings;
